:SAMPLES-PER-SECOND 30
:FULLY-SPECIFIED
:DEGREES
1678
root  2.84625 40.9853 -1.74251 179.36 -87.48 176.229
RightUpLeg  5.4308 -8.24992 -6.60912
RightLeg  3.3226 -7.6642 2.44105
RightFoot  -2.32138 -0.0352837 0.246126
RightToes  -4.65663e-010 0 -3.6325e-017
Spine  -4.23947 0.591111 3.56462
Spine1  3.52007 0.504037 -0.496697
HEad  -10.1476 6.83113 -6.12277
LeftShoulder1  6.29266 -8.72316 -44.8058
LeftArm  1.16933 29.9033 -27.4515
LeftForeArm  22.7447 -20.22 -4.13613
LeftHand  -0.244104 0.0205437 5.32207
RightShoulder  4.67332 7.36964 36.9685
RightArm  -2.74652 -26.5854 30.485
RightForeArm  7.51563 14.6211 6.08376
RightHand  -1.67664 5.42282 -18.1541
LeftUpLeg  6.64774 6.0401 4.76929
LeftLeg  2.24983 14.0317 -2.99919
LeftFoot  -3.35299 -0.00861692 0.380335
LeftToes  4.18335e-011 1.59304e-011 3.38507e-012
1679
root  2.74442 40.975 -1.76891 177.634 -87.4122 177.717
RightUpLeg  5.72468 -8.18273 -6.50609
RightLeg  3.55981 -7.67672 2.33326
RightFoot  -2.4811 -0.0267841 0.127252
RightToes  -4.65663e-010 0 -3.6325e-017
Spine  -4.75354 0.529245 3.67878
Spine1  4.01586 0.422766 -0.482951
HEad  -9.64596 7.11638 -6.29003
LeftShoulder1  6.45323 -8.934 -45.188
LeftArm  0.993653 29.2326 -27.4478
LeftForeArm  23.7303 -18.7415 -4.53592
LeftHand  -0.244104 0.0205437 5.32207
RightShoulder  4.78462 7.59068 37.1115
RightArm  -3.80518 -26.0006 30.4611
RightForeArm  9.39483 13.1012 6.29423
RightHand  -1.62006 5.16824 -17.9666
LeftUpLeg  6.95269 6.11159 4.91508
LeftLeg  2.51719 14.009 -2.91147
LeftFoot  -3.54058 -0.0119611 0.423465
LeftToes  4.18335e-011 1.59304e-011 3.38507e-012
1680
root  2.64594 40.9801 -1.79363 177.653 -87.2668 177.961
RightUpLeg  5.63989 -8.20406 -6.47157
RightLeg  3.43364 -7.57872 2.41236
RightFoot  -2.47757 -0.022714 0.0731698
RightToes  -4.65663e-010 0 -3.6325e-017
Spine  -5.45393 0.546448 3.80802
Spine1  4.09364 0.432658 -0.568944
HEad  -9.05117 7.3999 -6.34938
LeftShoulder1  6.55996 -9.06747 -45.4587
LeftArm  1.16017 28.6763 -27.2943
LeftForeArm  24.7412 -17.6731 -4.91243
LeftHand  -0.244104 0.0205437 5.32207
RightShoulder  4.8148 7.64873 37.1561
RightArm  -3.95054 -25.5706 30.4558
RightForeArm  10.1934 12.3969 6.4219
RightHand  -1.56025 4.87168 -17.8031
LeftUpLeg  6.94811 6.10891 4.94812
LeftLeg  2.29136 14.1507 -2.98232
LeftFoot  -3.49287 -0.00896186 0.36909
LeftToes  4.18335e-011 1.59304e-011 3.38507e-012
1681
root  2.585 40.9931 -1.82836 178.519 -87.1128 177.581
RightUpLeg  5.36537 -8.24132 -6.44761
RightLeg  3.07131 -7.45923 2.58588
RightFoot  -2.36117 -0.0211837 0.0602166
RightToes  -4.65663e-010 0 -3.6325e-017
Spine  -5.88514 0.62155 3.83422
Spine1  3.83568 0.51052 -0.673354
HEad  -8.82365 7.58707 -6.39138
LeftShoulder1  6.69173 -9.23381 -45.7788
LeftArm  1.4567 28.0563 -26.9478
LeftForeArm  25.3753 -17.0118 -5.1903
LeftHand  -0.244104 0.0205437 5.32207
RightShoulder  4.82397 7.62259 37.3339
RightArm  -3.79089 -25.0945 30.3664
RightForeArm  10.3196 12.3261 6.46289
RightHand  -1.52524 4.75098 -17.6149
LeftUpLeg  6.76769 6.07041 4.92644
LeftLeg  1.79205 14.3576 -3.11746
LeftFoot  -3.26621 -0.00409919 0.28711
LeftToes  4.18335e-011 1.59304e-011 3.38507e-012
1682
root  2.58256 41.0082 -1.8759 179.241 -87.0095 177.398
RightUpLeg  4.95729 -8.20587 -6.34582
RightLeg  2.67799 -7.43559 2.73268
RightFoot  -2.19151 -0.0204832 0.0675151
RightToes  -4.65663e-010 0 -3.6325e-017
Spine  -5.85773 0.684665 3.75341
Spine1  3.42403 0.589822 -0.776599
HEad  -9.12574 7.64803 -6.44186
LeftShoulder1  6.86378 -9.47352 -46.1017
LeftArm  1.40729 27.1667 -26.5854
LeftForeArm  25.8017 -16.4827 -5.39645
LeftHand  -0.244104 0.0205437 5.32207
RightShoulder  4.88543 7.66576 37.703
RightArm  -3.70851 -24.3956 30.2526
RightForeArm  10.2452 12.6223 6.40049
RightHand  -1.53185 4.8776 -17.4797
LeftUpLeg  6.43073 6.05666 4.93145
LeftLeg  1.29483 14.5013 -3.25787
LeftFoot  -2.97289 -0.000115787 0.220424
LeftToes  4.18335e-011 1.59304e-011 3.38507e-012
1683
root  2.62621 41.0226 -1.92762 179.52 -86.9858 177.695
RightUpLeg  4.38445 -8.11101 -6.16047
RightLeg  2.39979 -7.54627 2.83012
RightFoot  -1.99616 -0.0157895 0.0266335
RightToes  -4.65663e-010 0 -3.6325e-017
Spine  -5.51299 0.680916 3.71103
Spine1  2.98793 0.628912 -0.973494
HEad  -9.72132 7.69845 -6.39441
LeftShoulder1  7.0179 -9.72209 -46.2587
LeftArm  1.07622 25.9315 -26.367
LeftForeArm  26.2217 -15.8813 -5.61004
LeftHand  -0.244104 0.0205437 5.32207
RightShoulder  4.9978 7.82494 38.0671
RightArm  -3.54 -23.4447 30.3169
RightForeArm  10.0991 13.0837 6.3099
RightHand  -1.57122 5.1438 -17.4805
LeftUpLeg  5.90825 6.11192 5.00815
LeftLeg  0.935321 14.4978 -3.42525
LeftFoot  -2.68134 0.00242133 0.17812
LeftToes  4.18335e-011 1.59304e-011 3.38507e-012
1684
root  2.698 41.0346 -1.97905 179.594 -87.0826 178.23
RightUpLeg  3.69865 -8.04668 -5.96197
RightLeg  2.22429 -7.77774 2.94963
RightFoot  -1.77969 -0.00278306 -0.111313
RightToes  -4.65663e-010 0 -3.6325e-017
Spine  -5.00653 0.595501 3.69571
Spine1  2.56576 0.599988 -1.19905
HEad  -10.3342 7.8247 -6.20174
LeftShoulder1  7.12706 -9.93073 -46.2507
LeftArm  1.03302 24.3807 -26.2424
LeftForeArm  26.5795 -15.3001 -5.86034
LeftHand  -0.244104 0.0205437 5.32207
RightShoulder  5.11001 8.03144 38.2439
RightArm  -2.82364 -22.2667 30.6111
RightForeArm  9.68757 13.6507 6.27859
RightHand  -1.59831 5.28218 -17.5518
LeftUpLeg  5.22288 6.20692 5.1295
LeftLeg  0.710671 14.3365 -3.61135
LeftFoot  -2.38257 0.00496051 0.137963
LeftToes  4.18335e-011 1.59304e-011 3.38507e-012
1685
root  2.79577 41.0453 -2.03278 179.894 -87.2889 178.551
RightUpLeg  2.98719 -8.05244 -5.80417
RightLeg  2.03599 -8.07246 3.13803
RightFoot  -1.52785 0.0158527 -0.305527
RightToes  -4.65663e-010 0 -3.6325e-017
Spine  -4.40938 0.474507 3.52378
Spine1  2.18826 0.5134 -1.24083
HEad  -10.8193 7.9223 -5.95031
LeftShoulder1  7.2442 -10.1457 -46.2732
LeftArm  1.57614 22.6015 -26.0519
LeftForeArm  26.782 -14.9836 -6.0822
LeftHand  -0.244104 0.0205437 5.32207
RightShoulder  5.20978 8.23953 38.3061
RightArm  -1.40557 -20.8887 30.9185
RightForeArm  8.80449 14.3602 6.28852
RightHand  -1.57778 5.12311 -17.5845
LeftUpLeg  4.42993 6.24375 5.20935
LeftLeg  0.545537 14.14 -3.73525
LeftFoot  -2.03637 0.0102188 0.0580054
LeftToes  4.18335e-011 1.59304e-011 3.38507e-012
1686
root  2.91736 41.0571 -2.08816 -179.379 -87.4808 178.465
RightUpLeg  2.2568 -8.07083 -5.67374
RightLeg  1.7576 -8.32297 3.35608
RightFoot  -1.21741 0.0340628 -0.477856
RightToes  -4.65663e-010 0 -3.6325e-017
Spine  -3.80797 0.393249 3.18776
Spine1  1.89545 0.436941 -1.09622
HEad  -11.0862 7.88342 -5.72228
LeftShoulder1  7.40838 -10.4115 -46.4248
LeftArm  2.4851 20.7545 -25.7644
LeftForeArm  26.7693 -15.1013 -6.15814
LeftHand  -0.244104 0.0205437 5.32207
RightShoulder  5.32389 8.46564 38.417
RightArm  0.290733 -19.3595 31.0731
RightForeArm  7.60453 15.1622 6.26076
RightHand  -1.53782 4.85475 -17.5831
LeftUpLeg  3.58216 6.17872 5.20299
LeftLeg  0.346097 14.0827 -3.77084
LeftFoot  -1.63845 0.0187987 -0.0708429
LeftToes  4.18335e-011 1.59304e-011 3.38507e-012
1687
root  3.04569 41.0713 -2.14099 -178.687 -87.5326 178.459
RightUpLeg  1.48081 -8.02624 -5.51637
RightLeg  1.39297 -8.45961 3.54138
RightFoot  -0.847795 0.0489321 -0.59546
RightToes  -4.65663e-010 0 -3.6325e-017
Spine  -3.26159 0.37567 2.90514
Spine1  1.6165 0.420947 -0.978908
HEad  -11.0813 7.84562 -5.5463
LeftShoulder1  7.56615 -10.6644 -46.5739
LeftArm  3.47289 19.0629 -25.5353
LeftForeArm  26.3595 -15.6921 -6.01348
LeftHand  -0.244104 0.0205437 5.32207
RightShoulder  5.44456 8.70236 38.5386
RightArm  1.75152 -17.7495 31.2129
RightForeArm  6.51129 15.865 6.19523
RightHand  -1.53464 4.79593 -17.6446
LeftUpLeg  2.7365 6.09561 5.17747
LeftLeg  0.0559093 14.1949 -3.812
LeftFoot  -1.22527 0.0279893 -0.206176
LeftToes  4.18335e-011 1.59304e-011 3.38507e-012
1688
root  3.16174 41.0854 -2.19099 -178.56 -87.4358 179.05
RightUpLeg  0.67563 -7.9129 -5.30957
RightLeg  1.00149 -8.50248 3.68158
RightFoot  -0.46318 0.0604554 -0.667781
RightToes  -4.65663e-010 0 -3.6325e-017
Spine  -2.70996 0.390209 2.78296
Spine1  1.15046 0.447641 -0.978083
HEad  -10.8153 8.01188 -5.44398
LeftShoulder1  7.63994 -10.8063 -46.5625
LeftArm  4.42614 17.7399 -25.5295
LeftForeArm  25.3696 -16.7271 -5.64267
LeftHand  -0.244104 0.0205437 5.32207
RightShoulder  5.52909 8.89783 38.5184
RightArm  2.94489 -16.1658 31.5275
RightForeArm  5.7327 16.3698 6.14474
RightHand  -1.56897 4.92756 -17.8066
LeftUpLeg  1.94319 6.08307 5.21011
LeftLeg  -0.310135 14.3769 -3.93481
LeftFoot  -0.827393 0.0355865 -0.313467
LeftToes  4.18335e-011 1.59304e-011 3.38507e-012
1689
root  3.25924 41.0973 -2.23819 -178.746 -87.2426 179.92
RightUpLeg  -0.0949687 -7.79105 -5.09657
RightLeg  0.64808 -8.46824 3.80509
RightFoot  -0.111316 0.0687125 -0.706309
RightToes  -4.65663e-010 0 -3.6325e-017
Spine  -2.08273 0.418157 2.73979
Spine1  0.419053 0.492436 -1.02731
HEad  -10.3556 8.31098 -5.38746
LeftShoulder1  7.63245 -10.842 -46.3972
LeftArm  5.13081 16.9053 -25.7359
LeftForeArm  23.9649 -18.1639 -5.07041
LeftHand  -0.244104 0.0205437 5.32207
RightShoulder  5.5742 9.03458 38.3969
RightArm  4.04738 -14.7412 31.9388
RightForeArm  5.19008 16.8129 6.08435
RightHand  -1.58792 4.96101 -17.9594
LeftUpLeg  1.25147 6.10953 5.277
LeftLeg  -0.703648 14.5969 -4.09153
LeftFoot  -0.450361 0.0420588 -0.399722
LeftToes  4.18335e-011 1.59304e-011 3.38507e-012
1690
root  3.33967 41.1068 -2.27759 -178.835 -86.9759 -179.434
RightUpLeg  -0.743488 -7.71001 -4.93111
RightLeg  0.368192 -8.32557 3.92519
RightFoot  0.188576 0.0745142 -0.724968
RightToes  -4.65663e-010 0 -3.6325e-017
Spine  -1.45467 0.462781 2.72513
Spine1  -0.325728 0.560235 -1.11702
HEad  -9.85877 8.52827 -5.30959
LeftShoulder1  7.60896 -10.8584 -46.1963
LeftArm  5.1661 16.5328 -25.9834
LeftForeArm  22.6416 -19.9629 -4.39873
LeftHand  -0.244104 0.0205437 5.32207
RightShoulder  5.62107 9.15057 38.3614
RightArm  4.92191 -13.5338 32.2598
RightForeArm  4.82629 17.3786 5.93456
RightHand  -1.56632 4.82883 -17.9418
LeftUpLeg  0.72245 6.11189 5.32254
LeftLeg  -1.06547 14.8972 -4.20729
LeftFoot  -0.11707 0.0482629 -0.477979
LeftToes  4.18335e-011 1.59304e-011 3.38507e-012
1691
root  3.40361 41.1132 -2.30754 -178.978 -86.6596 -178.915
RightUpLeg  -1.2159 -7.65412 -4.80392
RightLeg  0.176126 -8.10512 4.01971
RightFoot  0.416336 0.0807586 -0.75535
RightToes  -4.65663e-010 0 -3.6325e-017
Spine  -0.971046 0.509225 2.74436
Spine1  -0.747767 0.634218 -1.23979
HEad  -9.53078 8.7055 -5.24798
LeftShoulder1  7.60848 -10.8979 -46.0633
LeftArm  4.24866 16.4675 -26.1015
LeftForeArm  21.9604 -22.0096 -3.91974
LeftHand  -0.244104 0.0205437 5.32207
RightShoulder  5.68119 9.2671 38.4244
RightArm  5.41559 -12.5066 32.5038
RightForeArm  4.52312 18.1274 5.68527
RightHand  -1.53424 4.73514 -17.742
LeftUpLeg  0.368702 6.12817 5.37291
LeftLeg  -1.30063 15.2218 -4.2875
LeftFoot  0.111743 0.0547672 -0.554501
LeftToes  4.18335e-011 1.59304e-011 3.38507e-012
1692
root  3.45028 41.1143 -2.33603 -179.443 -86.3595 -178.215
RightUpLeg  -1.54932 -7.57618 -4.66218
RightLeg  0.0803276 -7.92978 4.06364
RightFoot  0.54322 0.0886417 -0.821366
RightToes  -4.65663e-010 0 -3.6325e-017
Spine  -0.669397 0.535949 2.72368
Spine1  -0.844055 0.670232 -1.25953
HEad  -9.40472 9.0541 -5.32116
LeftShoulder1  7.61282 -10.9221 -46.011
LeftArm  2.6798 16.5213 -26.0759
LeftForeArm  22.2482 -23.9874 -3.93799
LeftHand  -0.244104 0.0205437 5.32207
RightShoulder  5.72313 9.35839 38.4344
RightArm  5.87427 -11.6752 32.7762
RightForeArm  3.90257 19.0621 5.40635
RightHand  -1.51732 4.73892 -17.546
LeftUpLeg  0.106374 6.2331 5.48983
LeftLeg  -1.32626 15.4292 -4.36773
LeftFoot  0.195371 0.064162 -0.647664
LeftToes  4.18335e-011 1.59304e-011 3.38507e-012
